<svg xmlns="http://www.w3.org/2000/svg" width="900" height="540" viewBox="0 0 900 540" role="img">
  <title>Michał Lemiec — GitHub Profile Card</title>
  <desc>Bento grid profile card: Hero, Now, Tech Stack, Stats placeholder, and Connect tiles in minimalist dark mode</desc>

  <defs>
    <style>
      @import url('https://fonts.googleapis.com/css2?family=Inter:wght@400;500;600&amp;display=swap');
      text { font-family: 'Inter', ui-sans-serif, system-ui, sans-serif; }
    </style>
    <clipPath id="clip-hero">
      <rect x="12" y="12" width="568" height="228" rx="12"/>
    </clipPath>
    <clipPath id="clip-now">
      <rect x="592" y="12" width="296" height="228" rx="12"/>
    </clipPath>
    <clipPath id="clip-stack">
      <rect x="12" y="252" width="568" height="162" rx="12"/>
    </clipPath>
    <clipPath id="clip-stats">
      <rect x="592" y="252" width="296" height="162" rx="12"/>
    </clipPath>
    <clipPath id="clip-connect">
      <rect x="12" y="426" width="876" height="102" rx="12"/>
    </clipPath>
  </defs>

  <!-- ── Background ── -->
  <rect width="900" height="540" fill="#090d13"/>

  <!-- ══════════════════════════════════════
       HERO TILE
  ══════════════════════════════════════ -->
  <rect x="12" y="12" width="568" height="228" rx="12" fill="#0d1117" stroke="#21262d" stroke-width="0.75"/>

  <!-- Label -->
  <text x="32" y="44" font-size="10" font-weight="500" fill="#4d5566" letter-spacing="0.12em">WHO I AM</text>

  <!-- Name -->
  <text x="32" y="82" font-size="30" font-weight="600" fill="#e6edf3">Michał Lemiec</text>

  <!-- Bio -->
  <text x="32" y="114" font-size="14" fill="#8b949e">Fullstack engineer focused on .NET &amp; TypeScript —</text>
  <text x="32" y="134" font-size="14" fill="#8b949e">building RAG systems, microservices, and tools</text>
  <text x="32" y="154" font-size="14" fill="#8b949e">that I actually use every day.</text>

  <!-- Location dot -->
  <circle cx="32" cy="191" r="5" fill="#238636"/>
  <text x="44" y="196" font-size="13" fill="#7d8590">Warsaw, Poland</text>
  <text x="162" y="196" font-size="13" fill="#3d444d">·</text>
  <text x="172" y="196" font-size="13" fill="#7d8590">open to opportunities</text>

  <!-- ══════════════════════════════════════
       NOW TILE
  ══════════════════════════════════════ -->
  <rect x="592" y="12" width="296" height="228" rx="12" fill="#0d1117" stroke="#21262d" stroke-width="0.75"/>

  <text x="612" y="44" font-size="10" font-weight="500" fill="#4d5566" letter-spacing="0.12em">NOW</text>

  <!-- Item 1 -->
  <circle cx="622" cy="74" r="4" fill="#1f6feb"/>
  <text x="634" y="72" font-size="12" font-weight="600" fill="#c9d1d9">Building</text>
  <text x="634" y="72" font-size="12" font-weight="400" fill="#7d8590" dx="56">DevDocs AI</text>
  <text x="634" y="88" font-size="12" fill="#7d8590">Multi-agent RAG,</text>
  <text x="634" y="103" font-size="12" fill="#7d8590">LangGraph + Gemini</text>

  <!-- Divider -->
  <line x1="612" y1="118" x2="874" y2="118" stroke="#21262d" stroke-width="0.5"/>

  <!-- Item 2 -->
  <circle cx="622" cy="138" r="4" fill="#388bfd"/>
  <text x="634" y="136" font-size="12" font-weight="600" fill="#c9d1d9">Learning</text>
  <text x="634" y="136" font-size="12" font-weight="400" fill="#7d8590" dx="56">Vertex AI</text>
  <text x="634" y="152" font-size="12" fill="#7d8590">&amp; agentic architectures</text>

  <!-- Divider -->
  <line x1="612" y1="167" x2="874" y2="167" stroke="#21262d" stroke-width="0.5"/>

  <!-- Item 3 -->
  <circle cx="622" cy="186" r="4" fill="#238636"/>
  <text x="634" y="184" font-size="12" font-weight="600" fill="#c9d1d9">Shipped</text>
  <text x="634" y="184" font-size="12" font-weight="400" fill="#7d8590" dx="48">Secret Pipe</text>
  <text x="634" y="200" font-size="12" fill="#7d8590">NANA in production</text>

  <!-- ══════════════════════════════════════
       TECH STACK TILE
  ══════════════════════════════════════ -->
  <rect x="12" y="252" width="568" height="162" rx="12" fill="#0d1117" stroke="#21262d" stroke-width="0.75"/>

  <text x="32" y="282" font-size="10" font-weight="500" fill="#4d5566" letter-spacing="0.12em">TECH STACK</text>

  <!-- Row 1 badges -->
  <!-- .NET/C# -->
  <rect x="32" y="292" width="86" height="24" rx="12" fill="#161b22" stroke="#30363d" stroke-width="0.75"/>
  <circle cx="47" cy="304" r="4" fill="#512BD4"/>
  <text x="55" y="309" font-size="11" fill="#c9d1d9">.NET / C#</text>

  <!-- TypeScript -->
  <rect x="126" y="292" width="92" height="24" rx="12" fill="#161b22" stroke="#30363d" stroke-width="0.75"/>
  <circle cx="141" cy="304" r="4" fill="#3178C6"/>
  <text x="149" y="309" font-size="11" fill="#c9d1d9">TypeScript</text>

  <!-- Angular -->
  <rect x="226" y="292" width="76" height="24" rx="12" fill="#161b22" stroke="#30363d" stroke-width="0.75"/>
  <circle cx="241" cy="304" r="4" fill="#DD0031"/>
  <text x="249" y="309" font-size="11" fill="#c9d1d9">Angular</text>

  <!-- React -->
  <rect x="310" y="292" width="66" height="24" rx="12" fill="#161b22" stroke="#30363d" stroke-width="0.75"/>
  <circle cx="325" cy="304" r="4" fill="#61DAFB"/>
  <text x="333" y="309" font-size="11" fill="#c9d1d9">React</text>

  <!-- Python -->
  <rect x="384" y="292" width="70" height="24" rx="12" fill="#161b22" stroke="#30363d" stroke-width="0.75"/>
  <circle cx="399" cy="304" r="4" fill="#3670A0"/>
  <text x="407" y="309" font-size="11" fill="#c9d1d9">Python</text>

  <!-- FastAPI -->
  <rect x="462" y="292" width="70" height="24" rx="12" fill="#161b22" stroke="#30363d" stroke-width="0.75"/>
  <circle cx="477" cy="304" r="4" fill="#009688"/>
  <text x="485" y="309" font-size="11" fill="#c9d1d9">FastAPI</text>

  <!-- Row 2 badges -->
  <!-- LangGraph -->
  <rect x="32" y="324" width="84" height="24" rx="12" fill="#161b22" stroke="#30363d" stroke-width="0.75"/>
  <circle cx="47" cy="336" r="4" fill="#7B5EA7"/>
  <text x="55" y="341" font-size="11" fill="#c9d1d9">LangGraph</text>

  <!-- GCP / Vertex AI -->
  <rect x="124" y="324" width="108" height="24" rx="12" fill="#161b22" stroke="#30363d" stroke-width="0.75"/>
  <circle cx="139" cy="336" r="4" fill="#4285F4"/>
  <text x="147" y="341" font-size="11" fill="#c9d1d9">GCP / Vertex AI</text>

  <!-- Azure DevOps -->
  <rect x="240" y="324" width="96" height="24" rx="12" fill="#161b22" stroke="#30363d" stroke-width="0.75"/>
  <circle cx="255" cy="336" r="4" fill="#0078D4"/>
  <text x="263" y="341" font-size="11" fill="#c9d1d9">Azure DevOps</text>

  <!-- Docker / K8s -->
  <rect x="344" y="324" width="92" height="24" rx="12" fill="#161b22" stroke="#30363d" stroke-width="0.75"/>
  <circle cx="359" cy="336" r="4" fill="#2496ED"/>
  <text x="367" y="341" font-size="11" fill="#c9d1d9">Docker / K8s</text>

  <!-- SQL / Postgres -->
  <rect x="444" y="324" width="98" height="24" rx="12" fill="#161b22" stroke="#30363d" stroke-width="0.75"/>
  <circle cx="459" cy="336" r="4" fill="#4479A1"/>
  <text x="467" y="341" font-size="11" fill="#c9d1d9">SQL / Postgres</text>

  <!-- Row 3 badges -->
  <!-- Streamlit -->
  <rect x="32" y="356" width="78" height="24" rx="12" fill="#161b22" stroke="#30363d" stroke-width="0.75"/>
  <circle cx="47" cy="368" r="4" fill="#FF4B4B"/>
  <text x="55" y="373" font-size="11" fill="#c9d1d9">Streamlit</text>

  <!-- LlamaIndex -->
  <rect x="118" y="356" width="84" height="24" rx="12" fill="#161b22" stroke="#30363d" stroke-width="0.75"/>
  <circle cx="133" cy="368" r="4" fill="#C8A951"/>
  <text x="141" y="373" font-size="11" fill="#c9d1d9">LlamaIndex</text>

  <!-- FAISS -->
  <rect x="210" y="356" width="54" height="24" rx="12" fill="#161b22" stroke="#30363d" stroke-width="0.75"/>
  <circle cx="225" cy="368" r="4" fill="#388bfd"/>
  <text x="233" y="373" font-size="11" fill="#c9d1d9">FAISS</text>

  <!-- ══════════════════════════════════════
       STATS TILE
  ══════════════════════════════════════ -->
  <rect x="592" y="252" width="296" height="162" rx="12" fill="#0d1117" stroke="#21262d" stroke-width="0.75"/>

  <text x="612" y="282" font-size="10" font-weight="500" fill="#4d5566" letter-spacing="0.12em">STATS</text>

  <!-- Contribution grid simulation -->
  <text x="612" y="306" font-size="11" fill="#7d8590">Contribution activity</text>

  <!-- Mini contrib grid 7 cols x 8 rows -->
  <g opacity="0.9">
    <!-- row 1 -->
    <rect x="612" y="316" width="9" height="9" rx="2" fill="#0e4429"/>
    <rect x="624" y="316" width="9" height="9" rx="2" fill="#006d32"/>
    <rect x="636" y="316" width="9" height="9" rx="2" fill="#161b22"/>
    <rect x="648" y="316" width="9" height="9" rx="2" fill="#26a641"/>
    <rect x="660" y="316" width="9" height="9" rx="2" fill="#0e4429"/>
    <rect x="672" y="316" width="9" height="9" rx="2" fill="#39d353"/>
    <rect x="684" y="316" width="9" height="9" rx="2" fill="#006d32"/>
    <rect x="696" y="316" width="9" height="9" rx="2" fill="#161b22"/>
    <rect x="708" y="316" width="9" height="9" rx="2" fill="#0e4429"/>
    <rect x="720" y="316" width="9" height="9" rx="2" fill="#26a641"/>
    <rect x="732" y="316" width="9" height="9" rx="2" fill="#161b22"/>
    <rect x="744" y="316" width="9" height="9" rx="2" fill="#39d353"/>
    <rect x="756" y="316" width="9" height="9" rx="2" fill="#006d32"/>
    <rect x="768" y="316" width="9" height="9" rx="2" fill="#0e4429"/>
    <rect x="780" y="316" width="9" height="9" rx="2" fill="#26a641"/>
    <rect x="792" y="316" width="9" height="9" rx="2" fill="#161b22"/>
    <rect x="804" y="316" width="9" height="9" rx="2" fill="#39d353"/>
    <rect x="816" y="316" width="9" height="9" rx="2" fill="#006d32"/>
    <rect x="828" y="316" width="9" height="9" rx="2" fill="#0e4429"/>
    <rect x="840" y="316" width="9" height="9" rx="2" fill="#26a641"/>
    <rect x="852" y="316" width="9" height="9" rx="2" fill="#161b22"/>
    <!-- row 2 -->
    <rect x="612" y="329" width="9" height="9" rx="2" fill="#161b22"/>
    <rect x="624" y="329" width="9" height="9" rx="2" fill="#0e4429"/>
    <rect x="636" y="329" width="9" height="9" rx="2" fill="#26a641"/>
    <rect x="648" y="329" width="9" height="9" rx="2" fill="#161b22"/>
    <rect x="660" y="329" width="9" height="9" rx="2" fill="#006d32"/>
    <rect x="672" y="329" width="9" height="9" rx="2" fill="#0e4429"/>
    <rect x="684" y="329" width="9" height="9" rx="2" fill="#39d353"/>
    <rect x="696" y="329" width="9" height="9" rx="2" fill="#26a641"/>
    <rect x="708" y="329" width="9" height="9" rx="2" fill="#161b22"/>
    <rect x="720" y="329" width="9" height="9" rx="2" fill="#006d32"/>
    <rect x="732" y="329" width="9" height="9" rx="2" fill="#39d353"/>
    <rect x="744" y="329" width="9" height="9" rx="2" fill="#0e4429"/>
    <rect x="756" y="329" width="9" height="9" rx="2" fill="#161b22"/>
    <rect x="768" y="329" width="9" height="9" rx="2" fill="#006d32"/>
    <rect x="780" y="329" width="9" height="9" rx="2" fill="#26a641"/>
    <rect x="792" y="329" width="9" height="9" rx="2" fill="#39d353"/>
    <rect x="804" y="329" width="9" height="9" rx="2" fill="#161b22"/>
    <rect x="816" y="329" width="9" height="9" rx="2" fill="#0e4429"/>
    <rect x="828" y="329" width="9" height="9" rx="2" fill="#006d32"/>
    <rect x="840" y="329" width="9" height="9" rx="2" fill="#26a641"/>
    <rect x="852" y="329" width="9" height="9" rx="2" fill="#39d353"/>
    <!-- row 3 -->
    <rect x="612" y="342" width="9" height="9" rx="2" fill="#26a641"/>
    <rect x="624" y="342" width="9" height="9" rx="2" fill="#161b22"/>
    <rect x="636" y="342" width="9" height="9" rx="2" fill="#39d353"/>
    <rect x="648" y="342" width="9" height="9" rx="2" fill="#006d32"/>
    <rect x="660" y="342" width="9" height="9" rx="2" fill="#161b22"/>
    <rect x="672" y="342" width="9" height="9" rx="2" fill="#26a641"/>
    <rect x="684" y="342" width="9" height="9" rx="2" fill="#0e4429"/>
    <rect x="696" y="342" width="9" height="9" rx="2" fill="#161b22"/>
    <rect x="708" y="342" width="9" height="9" rx="2" fill="#39d353"/>
    <rect x="720" y="342" width="9" height="9" rx="2" fill="#006d32"/>
    <rect x="732" y="342" width="9" height="9" rx="2" fill="#0e4429"/>
    <rect x="744" y="342" width="9" height="9" rx="2" fill="#26a641"/>
    <rect x="756" y="342" width="9" height="9" rx="2" fill="#161b22"/>
    <rect x="768" y="342" width="9" height="9" rx="2" fill="#39d353"/>
    <rect x="780" y="342" width="9" height="9" rx="2" fill="#006d32"/>
    <rect x="792" y="342" width="9" height="9" rx="2" fill="#161b22"/>
    <rect x="804" y="342" width="9" height="9" rx="2" fill="#0e4429"/>
    <rect x="816" y="342" width="9" height="9" rx="2" fill="#26a641"/>
    <rect x="828" y="342" width="9" height="9" rx="2" fill="#39d353"/>
    <rect x="840" y="342" width="9" height="9" rx="2" fill="#006d32"/>
    <rect x="852" y="342" width="9" height="9" rx="2" fill="#0e4429"/>
    <!-- row 4 -->
    <rect x="612" y="355" width="9" height="9" rx="2" fill="#006d32"/>
    <rect x="624" y="355" width="9" height="9" rx="2" fill="#39d353"/>
    <rect x="636" y="355" width="9" height="9" rx="2" fill="#0e4429"/>
    <rect x="648" y="355" width="9" height="9" rx="2" fill="#26a641"/>
    <rect x="660" y="355" width="9" height="9" rx="2" fill="#39d353"/>
    <rect x="672" y="355" width="9" height="9" rx="2" fill="#161b22"/>
    <rect x="684" y="355" width="9" height="9" rx="2" fill="#006d32"/>
    <rect x="696" y="355" width="9" height="9" rx="2" fill="#39d353"/>
    <rect x="708" y="355" width="9" height="9" rx="2" fill="#26a641"/>
    <rect x="720" y="355" width="9" height="9" rx="2" fill="#161b22"/>
    <rect x="732" y="355" width="9" height="9" rx="2" fill="#006d32"/>
    <rect x="744" y="355" width="9" height="9" rx="2" fill="#0e4429"/>
    <rect x="756" y="355" width="9" height="9" rx="2" fill="#39d353"/>
    <rect x="768" y="355" width="9" height="9" rx="2" fill="#26a641"/>
    <rect x="780" y="355" width="9" height="9" rx="2" fill="#006d32"/>
    <rect x="792" y="355" width="9" height="9" rx="2" fill="#161b22"/>
    <rect x="804" y="355" width="9" height="9" rx="2" fill="#39d353"/>
    <rect x="816" y="355" width="9" height="9" rx="2" fill="#0e4429"/>
    <rect x="828" y="355" width="9" height="9" rx="2" fill="#26a641"/>
    <rect x="840" y="355" width="9" height="9" rx="2" fill="#006d32"/>
    <rect x="852" y="355" width="9" height="9" rx="2" fill="#39d353"/>
  </g>

  <!-- Top langs mini -->
  <text x="612" y="386" font-size="11" fill="#7d8590">Top languages</text>
  <!-- C# bar -->
  <text x="612" y="402" font-size="10" fill="#8b949e">C#</text>
  <rect x="634" y="392" width="120" height="7" rx="3" fill="#21262d"/>
  <rect x="634" y="392" width="90" height="7" rx="3" fill="#512BD4" opacity="0.8"/>
  <text x="760" y="401" font-size="10" fill="#7d8590">44%</text>
  <!-- TS bar -->
  <text x="612" y="416" font-size="10" fill="#8b949e">TS</text>
  <rect x="634" y="406" width="120" height="7" rx="3" fill="#21262d"/>
  <rect x="634" y="406" width="62" height="7" rx="3" fill="#3178C6" opacity="0.8"/>
  <text x="760" y="415" font-size="10" fill="#7d8590">30%</text>
  <!-- Python bar -->
  <text x="612" y="430" font-size="10" fill="#8b949e">Py</text>
  <rect x="634" y="420" width="120" height="7" rx="3" fill="#21262d"/>
  <rect x="634" y="420" width="38" height="7" rx="3" fill="#3670A0" opacity="0.8"/>
  <text x="760" y="429" font-size="10" fill="#7d8590">18%</text>

  <!-- ══════════════════════════════════════
       CONNECT TILE
  ══════════════════════════════════════ -->
  <rect x="12" y="426" width="876" height="102" rx="12" fill="#0d1117" stroke="#21262d" stroke-width="0.75"/>

  <text x="32" y="454" font-size="10" font-weight="500" fill="#4d5566" letter-spacing="0.12em">CONNECT</text>

  <!-- LinkedIn button -->
  <rect x="32" y="462" width="170" height="36" rx="8" fill="#161b22" stroke="#30363d" stroke-width="0.75"/>
  <rect x="48" y="474" width="12" height="12" rx="2" fill="#0A66C2"/>
  <text x="68" y="484" font-size="12" font-weight="500" fill="#c9d1d9">linkedin.com/in/mlemiec</text>

  <!-- Portfolio button -->
  <rect x="214" y="462" width="150" height="36" rx="8" fill="#161b22" stroke="#30363d" stroke-width="0.75"/>
  <circle cx="230" cy="480" r="6" fill="none" stroke="#7d8590" stroke-width="1.2"/>
  <line x1="230" y1="474" x2="230" y2="486" stroke="#7d8590" stroke-width="1"/>
  <line x1="224" y1="480" x2="236" y2="480" stroke="#7d8590" stroke-width="1"/>
  <text x="245" y="484" font-size="12" font-weight="500" fill="#c9d1d9">Portfolio / Projects</text>

  <!-- GitHub button -->
  <rect x="376" y="462" width="160" height="36" rx="8" fill="#161b22" stroke="#30363d" stroke-width="0.75"/>
  <circle cx="392" cy="480" r="6" fill="#c9d1d9"/>
  <text x="407" y="484" font-size="12" font-weight="500" fill="#c9d1d9">github.com/mlemiec</text>

  <!-- Secret Pipe project pill -->
  <rect x="580" y="462" width="108" height="36" rx="8" fill="#0d2b0d" stroke="#238636" stroke-width="0.75"/>
  <text x="596" y="476" font-size="10" fill="#3fb950">PROJECT</text>
  <text x="596" y="490" font-size="11" font-weight="500" fill="#58d05e">Secret Pipe ↗</text>

  <!-- NANA project pill -->
  <rect x="698" y="462" width="90" height="36" rx="8" fill="#0d1b2b" stroke="#1f6feb" stroke-width="0.75"/>
  <text x="714" y="476" font-size="10" fill="#388bfd">PROJECT</text>
  <text x="714" y="490" font-size="11" font-weight="500" fill="#58a6ff">NANA ↗</text>

  <!-- Gap filler / subtle grid lines -->
  <line x1="12" y1="240" x2="888" y2="240" stroke="#090d13" stroke-width="10"/>
  <line x1="580" y1="12" x2="580" y2="414" stroke="#090d13" stroke-width="10"/>
  <line x1="12" y1="414" x2="888" y2="414" stroke="#090d13" stroke-width="10"/>

</svg>